<svg id="e7GDz5XNeAv1" xmlns="http://www.w3.org/2000/svg" xmlns:xlink="http://www.w3.org/1999/xlink" viewBox="0 0 80 384" shape-rendering="geometricPrecision" text-rendering="geometricPrecision"><g transform="matrix(0 1-1 0 80 0)"><line x1="0" y1="-40" x2="0" y2="0" transform="matrix(.5 0 0 1 320 80)" fill="none" stroke="#3f5787" stroke-width="3"/><line x1="0" y1="-40" x2="0" y2="40" transform="matrix(.5 0 0 1 256 40)" fill="none" stroke="#3f5787" stroke-width="3"/><line x1="0" y1="-40" x2="0" y2="0" transform="matrix(.5 0 0 1 192 80)" fill="none" stroke="#3f5787" stroke-width="3"/><line x1="0" y1="-40" x2="0" y2="40" transform="matrix(.5 0 0 1 128 40)" fill="none" stroke="#3f5787" stroke-width="3"/><line x1="0" y1="-40" x2="0" y2="0" transform="matrix(.5 0 0 1 64 80)" fill="none" stroke="#3f5787" stroke-width="3"/><line x1="-192" y1="0" x2="192" y2="0" transform="matrix(1 0 0 0.5 192 40)" fill="none" stroke="#3f5787" stroke-width="3"/><line x1="0" y1="-40" x2="0" y2="40" transform="matrix(.5 0 0 1 383.5 40)" fill="none" stroke="#3f5787" stroke-width="3"/><line x1="0" y1="-40" x2="0" y2="40" transform="matrix(.5 0 0 1 0.5 40)" fill="none" stroke="#3f5787" stroke-width="3"/><line x1="-192" y1="0" x2="192" y2="0" transform="matrix(1 0 0 0.5 192 79.5)" fill="none" stroke="#3f5787" stroke-width="3"/><line x1="-192" y1="0" x2="192" y2="0" transform="matrix(1 0 0 0.5 192 0.5)" fill="none" stroke="#3f5787" stroke-width="3"/></g></svg>
