<svg id="ejztcr67DQn1" xmlns="http://www.w3.org/2000/svg" xmlns:xlink="http://www.w3.org/1999/xlink" viewBox="0 0 120 448" shape-rendering="geometricPrecision" text-rendering="geometricPrecision"><line x1="-60" y1="0" x2="60" y2="0" transform="matrix(1 0 0 0.5 60 447.5)" fill="none" stroke="#3f5787" stroke-width="3"/><line x1="-60" y1="0" x2="60" y2="0" transform="matrix(1 0 0 0.5 60 416)" fill="none" stroke="#3f5787" stroke-width="3"/><line x1="-60" y1="0" x2="60" y2="0" transform="matrix(1 0 0 0.5 60 384)" fill="none" stroke="#3f5787" stroke-width="3"/><line x1="-60" y1="0" x2="60" y2="0" transform="matrix(1 0 0 0.5 60 352)" fill="none" stroke="#3f5787" stroke-width="3"/><line x1="-60" y1="0" x2="60" y2="0" transform="matrix(1 0 0 0.5 60 320)" fill="none" stroke="#3f5787" stroke-width="3"/><line x1="-60" y1="0" x2="60" y2="0" transform="matrix(1 0 0 0.5 60 288)" fill="none" stroke="#3f5787" stroke-width="3"/><line x1="-60" y1="0" x2="60" y2="0" transform="matrix(1 0 0 0.5 60 256)" fill="none" stroke="#3f5787" stroke-width="3"/><line x1="-60" y1="0" x2="60" y2="0" transform="matrix(1 0 0 0.5 60 224)" fill="none" stroke="#3f5787" stroke-width="3"/><line x1="-60" y1="0" x2="60" y2="0" transform="matrix(1 0 0 0.5 60 192)" fill="none" stroke="#3f5787" stroke-width="3"/><line x1="-60" y1="0" x2="60" y2="0" transform="matrix(1 0 0 0.5 60 160)" fill="none" stroke="#3f5787" stroke-width="3"/><line x1="-60" y1="0" x2="60" y2="0" transform="matrix(1 0 0 0.5 60 128)" fill="none" stroke="#3f5787" stroke-width="3"/><line x1="-60" y1="0" x2="60" y2="0" transform="matrix(1 0 0 0.5 60 96)" fill="none" stroke="#3f5787" stroke-width="3"/><line x1="-60" y1="0" x2="60" y2="0" transform="matrix(1 0 0 0.5 60 64)" fill="none" stroke="#3f5787" stroke-width="3"/><line x1="-60" y1="0" x2="60" y2="0" transform="matrix(1 0 0 0.5 60 32)" fill="none" stroke="#3f5787" stroke-width="3"/><line x1="-60" y1="0" x2="60" y2="0" transform="matrix(1 0 0 0.5 60 0.5)" fill="none" stroke="#3f5787" stroke-width="3"/><line x1="0" y1="-224" x2="0" y2="224" transform="matrix(.5 0 0 1 119.5 224)" fill="none" stroke="#3f5787" stroke-width="3"/><line x1="0" y1="-208" x2="0" y2="208" transform="matrix(.5 0 0 1 80 240)" fill="none" stroke="#3f5787" stroke-width="3"/><line x1="0" y1="-208" x2="0" y2="208" transform="matrix(.5 0 0 1 40 240)" fill="none" stroke="#3f5787" stroke-width="3"/><line x1="0" y1="-224" x2="0" y2="224" transform="matrix(.5 0 0 1 0.5 224)" fill="none" stroke="#3f5787" stroke-width="3"/></svg>
